<svg width="28" height="28" viewBox="0 0 28 28" fill="none" xmlns="http://www.w3.org/2000/svg">
<g clip-path="url(#clip0_124_511)">
<path fill-rule="evenodd" clip-rule="evenodd" d="M2.91659 6.41634V16.9163H2.33325V19.2497C2.33325 19.7168 2.72205 19.833 2.91659 19.833H3.55831C3.82861 21.1649 5.00553 22.1663 6.41658 22.1663C7.82764 22.1663 9.00456 21.1649 9.27486 19.833H17.5583C17.8286 21.1649 19.0055 22.1663 20.4166 22.1663C21.8276 22.1663 23.0046 21.1649 23.2749 19.833H24.4999C25.1442 19.833 25.6666 19.3112 25.6666 18.6663V16.9163C25.2 16.9163 25.0833 16.5278 25.0833 16.333L22.4432 8.94108C22.2774 8.47624 21.8382 8.16634 21.3451 8.16634H17.4999C17.0334 8.16634 16.9166 7.77783 16.9166 7.58301V6.41634C16.9166 6.1748 16.8129 6.02669 16.6859 5.94124C16.5668 5.86035 16.4272 5.83301 16.3333 5.83301H3.49992C3.03337 5.83301 2.91659 6.22152 2.91659 6.41634ZM16.9166 9.33301H21.5833L23.3333 13.9997H16.9166V9.33301ZM6.41658 20.9997C7.38302 20.9997 8.16658 20.2158 8.16658 19.2497C8.16658 18.2835 7.38302 17.4997 6.41658 17.4997C5.45015 17.4997 4.66659 18.2835 4.66659 19.2497C4.66659 20.2158 5.45015 20.9997 6.41658 20.9997ZM20.4166 20.9997C21.383 20.9997 22.1666 20.2158 22.1666 19.2497C22.1666 18.2835 21.383 17.4997 20.4166 17.4997C19.4502 17.4997 18.6666 18.2835 18.6666 19.2497C18.6666 20.2158 19.4502 20.9997 20.4166 20.9997Z" fill="white"/>
</g>
<defs>
<clipPath id="clip0_124_511">
<rect width="28" height="28" fill="white"/>
</clipPath>
</defs>
</svg>
