<svg width="20" height="20" viewBox="0 0 20 20" fill="none" xmlns="http://www.w3.org/2000/svg">
<g clip-path="url(#clip0_1_2417)">
<path d="M16.6665 3.3335H3.33317C2.4165 3.3335 1.6665 4.0835 1.6665 5.00016V15.0002C1.6665 15.9168 2.4165 16.6668 3.33317 16.6668H16.6665C17.5832 16.6668 18.3332 15.9168 18.3332 15.0002V5.00016C18.3332 4.0835 17.5832 3.3335 16.6665 3.3335ZM16.3332 6.87516L10.8832 10.2835C10.3415 10.6252 9.65817 10.6252 9.1165 10.2835L3.6665 6.87516C3.45817 6.74183 3.33317 6.51683 3.33317 6.27516C3.33317 5.71683 3.9415 5.3835 4.4165 5.67516L9.99984 9.16683L15.5832 5.67516C16.0582 5.3835 16.6665 5.71683 16.6665 6.27516C16.6665 6.51683 16.5415 6.74183 16.3332 6.87516Z" fill="#707070"/>
</g>
<defs>
<clipPath id="clip0_1_2417">
<rect width="20" height="20" fill="white"/>
</clipPath>
</defs>
</svg>
