<svg width="28" height="28" viewBox="0 0 28 28" fill="none" xmlns="http://www.w3.org/2000/svg">
<g clip-path="url(#clip0_227_2139)">
<path d="M19.2273 2.33325H8.77227C5.2218 2.33325 2.33325 5.22194 2.33325 8.77241V19.2274C2.33325 22.778 5.2218 25.6666 8.77227 25.6666H19.2273C22.778 25.6666 25.6666 22.7779 25.6666 19.2274V8.77241C25.6667 5.22194 22.778 2.33325 19.2273 2.33325ZM23.5965 19.2274C23.5965 21.6365 21.6365 23.5963 19.2274 23.5963H8.77227C6.36333 23.5965 4.4035 21.6365 4.4035 19.2274V8.77241C4.4035 6.36347 6.36333 4.4035 8.77227 4.4035H19.2273C21.6364 4.4035 23.5963 6.36347 23.5963 8.77241L23.5965 19.2274Z" fill="#E7E7E7"/>
<path d="M14 7.98733C10.6847 7.98733 7.98757 10.6844 7.98757 13.9997C7.98757 17.3149 10.6847 20.0119 14 20.0119C17.3153 20.0119 20.0124 17.3149 20.0124 13.9997C20.0124 10.6844 17.3153 7.98733 14 7.98733ZM14 17.9415C11.8264 17.9415 10.0578 16.1732 10.0578 13.9996C10.0578 11.8258 11.8262 10.0574 14 10.0574C16.1737 10.0574 17.9421 11.8258 17.9421 13.9996C17.9421 16.1732 16.1736 17.9415 14 17.9415Z" fill="#E7E7E7"/>
<path d="M20.2645 6.23277C19.8657 6.23277 19.4738 6.39425 19.1921 6.67719C18.9091 6.95874 18.7463 7.35071 18.7463 7.75096C18.7463 8.14996 18.9092 8.54179 19.1921 8.82472C19.4737 9.10628 19.8657 9.26914 20.2645 9.26914C20.6648 9.26914 21.0554 9.10628 21.3383 8.82472C21.6212 8.54179 21.7827 8.14982 21.7827 7.75096C21.7827 7.35071 21.6212 6.95874 21.3383 6.67719C21.0567 6.39425 20.6648 6.23277 20.2645 6.23277Z" fill="#E7E7E7"/>
</g>
<defs>
<clipPath id="clip0_227_2139">
<rect width="28" height="28" fill="white"/>
</clipPath>
</defs>
</svg>
