<svg width="28" height="28" viewBox="0 0 28 28" fill="none" xmlns="http://www.w3.org/2000/svg">
<g clip-path="url(#clip0_227_2145)">
<path d="M5.1629 2.33325C3.45192 2.33325 2.33325 3.45677 2.33325 4.93347C2.33325 6.37756 3.4186 7.53312 5.09725 7.53312H5.12972C6.87417 7.53312 7.9598 6.37756 7.9598 4.93347C7.92718 3.45677 6.87417 2.33325 5.1629 2.33325Z" fill="#E7E7E7"/>
<path d="M2.6289 9.58733H7.63082V24.6358H2.6289V9.58733Z" fill="#E7E7E7"/>
<path d="M19.9082 9.23521C17.2098 9.23521 15.4004 11.7708 15.4004 11.7708V9.5884H10.3984V24.6369H15.4001V16.2332C15.4001 15.7833 15.4328 15.3342 15.5649 15.0124C15.9265 14.1141 16.7494 13.1834 18.1312 13.1834C19.9412 13.1834 20.6651 14.5634 20.6651 16.5864V24.6369H25.6666V16.0083C25.6666 11.3861 23.1988 9.23521 19.9082 9.23521Z" fill="#E7E7E7"/>
</g>
<defs>
<clipPath id="clip0_227_2145">
<rect width="28" height="28" fill="white"/>
</clipPath>
</defs>
</svg>
