<svg width="20" height="20" viewBox="0 0 20 20" fill="none" xmlns="http://www.w3.org/2000/svg">
<g clip-path="url(#clip0_1_2420)">
<path d="M3.68768 1.6665C2.46556 1.6665 1.6665 2.46901 1.6665 3.5238C1.6665 4.5553 2.44175 5.3807 3.64079 5.3807H3.66398C4.91001 5.3807 5.68547 4.5553 5.68547 3.5238C5.66217 2.46901 4.91001 1.6665 3.68768 1.6665Z" fill="#707070"/>
<path d="M1.87768 6.84799H5.45048V17.5969H1.87768V6.84799Z" fill="#707070"/>
<path d="M14.22 6.59648C12.2926 6.59648 11.0002 8.40759 11.0002 8.40759V6.84876H7.42731V17.5977H11V11.5951C11 11.2737 11.0233 10.9529 11.1177 10.7231C11.376 10.0814 11.9637 9.41661 12.9508 9.41661C14.2436 9.41661 14.7607 10.4023 14.7607 11.8473V17.5977H18.3332V11.4344C18.3332 8.13283 16.5705 6.59648 14.22 6.59648Z" fill="#707070"/>
</g>
<defs>
<clipPath id="clip0_1_2420">
<rect width="20" height="20" fill="white"/>
</clipPath>
</defs>
</svg>
