<svg width="32" height="32" viewBox="0 0 32 32" fill="none" xmlns="http://www.w3.org/2000/svg">
<g clip-path="url(#clip0_1_739)">
<path d="M2.94637 10.3405C2.5895 10.1875 2.56928 9.69411 2.91247 9.51297L15.7812 2.72059C15.9179 2.64847 16.0818 2.64847 16.2185 2.72059L29.0872 9.51297C29.4304 9.69411 29.4102 10.1875 29.0533 10.3405L16.1846 15.8593C16.0667 15.9099 15.933 15.9099 15.8151 15.8593L2.94637 10.3405Z" fill="white"/>
<path d="M7.07029 13.7875C6.94271 13.7328 6.79723 13.7386 6.67446 13.8034L2.91247 15.7891C2.56928 15.9702 2.5895 16.4636 2.94637 16.6166L15.8151 22.1354C15.933 22.186 16.0667 22.186 16.1846 22.1354L29.0533 16.6166C29.4102 16.4636 29.4304 15.9702 29.0872 15.7891L25.3252 13.8034C25.2024 13.7386 25.057 13.7328 24.9294 13.7875L16.1846 17.5377C16.0667 17.5883 15.933 17.5883 15.8151 17.5377L7.07029 13.7875Z" fill="white"/>
<path d="M7.07029 20.2243C6.94271 20.1696 6.79723 20.1754 6.67446 20.2402L2.91247 22.2259C2.56928 22.407 2.5895 22.9004 2.94637 23.0534L15.8151 28.5722C15.933 28.6228 16.0667 28.6228 16.1846 28.5722L29.0533 23.0534C29.4102 22.9004 29.4304 22.407 29.0872 22.2259L25.3252 20.2402C25.2024 20.1754 25.057 20.1696 24.9294 20.2243L16.1846 23.9745C16.0667 24.0251 15.933 24.0251 15.8151 23.9745L7.07029 20.2243Z" fill="white"/>
</g>
<defs>
<clipPath id="clip0_1_739">
<rect width="32" height="32" fill="white"/>
</clipPath>
</defs>
</svg>
