<svg width="28" height="28" viewBox="0 0 28 28" fill="none" xmlns="http://www.w3.org/2000/svg">
<g clip-path="url(#clip0_124_520)">
<path d="M22.435 17.8034L19.4717 17.4651C18.76 17.3834 18.06 17.6284 17.5584 18.1301L15.4117 20.2767C12.11 18.5967 9.40338 15.9017 7.72338 12.5884L9.88171 10.4301C10.3834 9.92838 10.6284 9.22838 10.5467 8.51672L10.2084 5.57672C10.0684 4.39839 9.07671 3.51172 7.88671 3.51172H5.86838C4.55005 3.51172 3.45338 4.60839 3.53505 5.92672C4.15338 15.8901 12.1217 23.8467 22.0734 24.465C23.3917 24.5467 24.4884 23.4501 24.4884 22.1317V20.1134C24.5 18.9351 23.6134 17.9434 22.435 17.8034Z" fill="#111111"/>
</g>
<defs>
<clipPath id="clip0_124_520">
<rect width="28" height="28" fill="white"/>
</clipPath>
</defs>
</svg>
