<svg width="28" height="28" viewBox="0 0 28 28" fill="none" xmlns="http://www.w3.org/2000/svg">
<g clip-path="url(#clip0_124_538)">
<path fill-rule="evenodd" clip-rule="evenodd" d="M17.595 12.3586C18.394 12.3312 19.3589 12.4145 20.2542 12.683C21.119 12.9423 22.2463 13.052 23.2665 13.0916C23.9563 13.1184 24.6216 13.114 25.1639 13.0959V14.872C25.1639 15.0139 25.2103 15.152 25.2963 15.2654C25.4239 15.4339 25.5555 15.7153 25.6746 16.1082C25.7908 16.4919 25.8828 16.9398 25.9533 17.4085C26.0943 18.3463 26.1416 19.3163 26.1416 19.9159C26.1416 20.1731 26.291 20.3956 26.5083 20.5024V22.4291H19.8806V21.4409C19.8806 21.2074 19.7553 20.9916 19.5518 20.8747C19.3483 20.7578 19.0975 20.7576 18.8937 20.8741C16.5165 22.2343 13.1266 22.6021 9.76501 22.4648C6.61611 22.3362 3.5917 21.7692 1.65311 21.256C1.86517 21.2058 2.03919 21.0541 2.11643 20.8503C2.21697 20.5849 2.52142 20.3185 3.02633 20.0988C3.50398 19.8909 4.034 19.7816 4.36771 19.7467C4.93002 19.7087 6.31667 19.6574 7.43629 19.7469C8.82237 19.8578 9.86618 19.2479 10.2687 18.8616C10.2786 18.8521 10.2881 18.8423 10.2974 18.8323C11.2131 17.8362 12.6109 16.3247 13.828 15.0278C14.4369 14.379 14.9987 13.7858 15.4318 13.3382C15.6486 13.114 15.8308 12.9289 15.9692 12.7925C16.1096 12.6542 16.1743 12.5971 16.1848 12.5879C16.1901 12.5851 16.2179 12.57 16.2795 12.5483C16.3547 12.5219 16.4579 12.4934 16.5894 12.4666C16.8522 12.413 17.1967 12.3723 17.595 12.3586ZM27.4467 19.3238C27.4244 18.7163 27.3674 17.9596 27.2555 17.2152C27.1793 16.7083 27.0757 16.1944 26.9353 15.7311C26.822 15.3571 26.6758 14.9854 26.4805 14.6717V12.4087C26.4805 12.2274 26.4048 12.0543 26.2714 11.9306C26.138 11.8069 25.9589 11.7437 25.7769 11.7562C25.2283 11.7938 24.2988 11.8226 23.318 11.7845C22.3255 11.7459 21.3344 11.6405 20.6347 11.4307C19.5745 11.1127 18.4616 11.02 17.5496 11.0513C17.0924 11.0669 16.6729 11.1142 16.3247 11.1852C16.0044 11.2505 15.6566 11.3524 15.4139 11.5272C15.315 11.5983 15.1744 11.7333 15.0421 11.8636C14.8927 12.0108 14.7022 12.2045 14.4825 12.4317C14.0425 12.8865 13.4754 13.4853 12.865 14.1357C11.6511 15.4292 10.2596 16.9338 9.34176 17.932C9.15506 18.1013 8.4808 18.5181 7.54193 18.443C6.3223 18.3454 4.85176 18.4023 4.26606 18.4424L4.24478 18.4442C3.80375 18.4888 3.12979 18.6256 2.49812 18.9005C1.97671 19.1274 1.37861 19.4947 1.03481 20.0765C0.79991 20.1687 0.535799 20.327 0.358507 20.5932C0.200708 20.8302 0.133865 21.124 0.200752 21.4389C0.262835 21.7312 0.42952 21.9948 0.645716 22.2319C0.728783 22.323 0.836014 22.3891 0.955109 22.4224C2.95351 22.9818 6.25558 23.6307 9.71092 23.7718C12.7438 23.8957 15.9835 23.6329 18.5639 22.5026V23.0831C18.5639 23.4444 18.8587 23.7372 19.2223 23.7372H27.1666C27.5302 23.7372 27.825 23.4444 27.825 23.0831V19.9159C27.825 19.6542 27.6702 19.4283 27.4467 19.3238Z" fill="white"/>
<path fill-rule="evenodd" clip-rule="evenodd" d="M23.0625 20.6075C24.5796 20.5056 26.155 20.5185 27.1374 20.5619C27.5006 20.5779 27.8082 20.2984 27.8243 19.9375C27.8404 19.5766 27.5591 19.2711 27.1958 19.2551C26.175 19.21 24.5493 19.1965 22.9737 19.3023C22.1859 19.3553 21.3994 19.4388 20.7018 19.5661C20.0169 19.6912 19.3652 19.8674 18.8799 20.1299C18.0096 20.6005 15.5964 21.3496 12.4438 21.5943C9.31074 21.8375 5.52599 21.5754 1.90618 20.0993C1.56982 19.9621 1.18523 20.1219 1.04717 20.456C0.909117 20.7902 1.06987 21.1723 1.40623 21.3095C5.26783 22.8842 9.27111 23.1527 12.5463 22.8985C15.802 22.6458 18.4173 21.8695 19.5093 21.2789C19.8089 21.1169 20.2958 20.9703 20.9398 20.8527C21.5711 20.7375 22.3039 20.6585 23.0625 20.6075Z" fill="white"/>
<path fill-rule="evenodd" clip-rule="evenodd" d="M11.5311 15.951C11.1675 15.951 10.8727 16.2439 10.8727 16.6051C10.8727 17.0534 10.9099 17.7394 11.0279 18.3437C11.0861 18.642 11.1711 18.9586 11.3022 19.2242C11.4179 19.4587 11.6591 19.8345 12.1186 19.925C12.3584 19.9722 12.5834 19.9279 12.7461 19.882C12.9155 19.8342 13.0914 19.7622 13.255 19.6914C13.3388 19.6551 13.423 19.6176 13.5089 19.5794C13.7786 19.4593 14.0644 19.3321 14.4039 19.2129C15.2658 18.9105 16.4125 18.6876 17.9279 19.0714C18.0671 19.1067 18.2871 19.2889 18.5538 19.733C18.733 20.0314 18.8728 20.3382 19.0046 20.6272C19.4818 21.6739 20.3154 20.6272 20.2356 20.155C20.0972 19.8515 19.9052 19.4302 19.6846 19.0628C19.4046 18.5966 18.9488 17.98 18.2532 17.8038C16.4291 17.3418 15.0117 17.6123 13.9654 17.9795C13.5695 18.1184 13.2167 18.2756 12.9412 18.3984C12.8642 18.4327 12.7932 18.4644 12.729 18.4922C12.6174 18.5405 12.531 18.5754 12.4621 18.5995C12.4126 18.4832 12.3631 18.3131 12.3205 18.0946C12.2238 17.5993 12.1894 17.0026 12.1894 16.6051C12.1894 16.2439 11.8946 15.951 11.5311 15.951ZM12.5271 18.7195C12.5271 18.7195 12.525 18.7162 12.5204 18.7114C12.5247 18.7175 12.5271 18.7195 12.5271 18.7195Z" fill="white"/>
<path fill-rule="evenodd" clip-rule="evenodd" d="M13.1224 3.19153C12.8507 2.95922 12.4419 2.98556 12.2027 3.25079L3.14092 13.298C2.90906 13.5551 2.91819 13.9469 3.16177 14.193L4.54621 15.592C4.67259 15.7197 4.84615 15.7904 5.02639 15.7874C5.20663 15.7845 5.37778 15.7083 5.4999 15.5765L14.8134 5.52935C14.9343 5.39894 14.9967 5.22537 14.9864 5.04838C14.976 4.87139 14.8938 4.70615 14.7586 4.5905L13.1224 3.19153Z" fill="white"/>
<path fill-rule="evenodd" clip-rule="evenodd" d="M12.4452 6.5947C12.7356 6.89307 13.242 7.28396 13.8707 7.55074C14.0659 7.63358 14.2779 7.70646 14.5028 7.76029L13.4763 8.90046C13.2902 8.76708 13.0654 8.59115 12.839 8.40465C12.5824 8.1933 12.3351 7.97776 12.1552 7.81094C12.064 7.72643 11.9973 7.66106 11.9569 7.61823L11.9559 7.61717C11.5168 6.88562 11.3666 8.26574 10.8187 8.28232L10.82 8.28456C10.8453 8.33 10.8718 8.36621 10.8884 8.38797C10.9232 8.43343 10.9625 8.47693 10.996 8.51248C11.0658 8.58655 11.1571 8.67481 11.257 8.76739C11.4591 8.95475 11.7261 9.18724 11.9986 9.41167C12.1964 9.5746 12.4031 9.73831 12.5944 9.87999L11.6505 10.9284L10.0859 9.41547C9.47746 8.82713 9.51418 9.99238 9.16758 10.3529L10.7719 11.9042L9.81415 12.968C9.71981 12.8457 9.61764 12.7247 9.51418 12.6086C9.08101 12.1226 8.53874 11.6271 8.1715 11.3178C7.52387 10.7723 8.07496 12.1901 7.32007 12.3156C7.65819 12.6004 8.15045 13.0518 8.52844 13.4759C8.6998 13.6681 8.83084 13.8362 8.9137 13.9681L7.78266 15.2243C7.59514 14.5403 7.22622 13.7878 6.55286 13.1537C5.93666 12.5733 6.09996 14.1523 5.64705 14.103C6.57724 14.9791 6.68335 16.217 6.62262 16.685C6.58573 16.9692 6.73939 17.2442 7.00171 17.3634C7.26403 17.4826 7.57391 17.4183 7.76622 17.2047L16.4656 7.54233C16.6618 7.32441 16.6886 7.0036 16.5313 6.75653C16.3739 6.50946 16.0706 6.39615 15.7884 6.479C15.3213 6.61613 14.8371 6.53839 14.3879 6.34775C13.935 6.15557 13.5715 5.8701 13.3917 5.68534C12.8014 5.07895 13.3416 6.30354 12.4452 6.5947Z" fill="white"/>
</g>
<defs>
<clipPath id="clip0_124_538">
<rect width="28" height="28" fill="white"/>
</clipPath>
</defs>
</svg>
