<svg width="28" height="28" viewBox="0 0 28 28" fill="none" xmlns="http://www.w3.org/2000/svg">
<g clip-path="url(#clip0_227_2133)">
<path d="M23.4553 8.01588C23.4553 7.90858 23.4553 7.9059 23.3421 7.9059C23.0838 7.90366 22.826 7.88124 22.5711 7.83884C21.6395 7.69936 18.6263 6.08993 18.1158 3.4478C18.0552 3.1225 18.0139 2.79375 17.9921 2.46337C17.9921 2.3373 17.9921 2.3373 17.8711 2.33461H14.2474C14.0106 2.33461 14.0448 2.30511 14.0448 2.5492V18.1928C14.0488 18.3867 14.0356 18.5807 14.0053 18.7722C13.933 19.2223 13.7721 19.6528 13.5324 20.0379C13.2926 20.4229 12.979 20.7546 12.6102 21.013C12.2415 21.2713 11.8253 21.451 11.3867 21.5411C10.9481 21.6313 10.4961 21.6301 10.058 21.5377C9.79158 21.4731 9.53168 21.3833 9.28167 21.2695L9.21851 21.2131C9.13463 21.1418 9.04677 21.0756 8.95536 21.0147C7.86326 20.2448 7.34484 19.1745 7.50273 17.836C7.66063 16.4975 8.42904 15.556 9.69219 15.0812C10.0686 14.9426 10.4692 14.8851 10.8685 14.9123C11.1282 14.9222 11.3859 14.9618 11.6369 15.0303C11.7238 15.0571 11.7711 15.0303 11.7764 14.931V14.8318C11.7764 13.8956 11.7448 11.8517 11.7395 11.8463C11.7395 11.5781 11.7395 11.3098 11.7395 11.0416C11.7395 10.9638 11.7027 10.9504 11.6395 10.9423C10.5557 10.8055 9.45559 10.92 8.42123 11.2772C7.38687 11.6343 6.445 12.225 5.6659 13.0051C4.39666 14.2668 3.63075 15.9629 3.51592 17.7663C3.45634 18.679 3.56433 19.5951 3.83434 20.4674C4.27333 21.8917 5.12801 23.1456 6.28432 24.0618C6.39657 24.1678 6.52225 24.2581 6.658 24.3301L6.83695 24.491C7.02892 24.6347 7.23326 24.7604 7.44747 24.8665C8.72714 25.5306 10.1721 25.7903 11.5974 25.6122C13.429 25.4081 15.1126 24.4914 16.2974 23.0533C17.4382 21.7154 18.0581 19.9975 18.0395 18.225C18.0553 15.6284 18.0395 13.0319 18.0395 10.4461C18.0395 10.3844 18.0053 10.2959 18.0711 10.2637C18.1369 10.2315 18.1763 10.312 18.2263 10.3442C19.165 10.9766 20.2081 11.4309 21.3053 11.6854C21.9469 11.8407 22.6037 11.9217 23.2632 11.9268C23.4711 11.9268 23.5 11.9268 23.5 11.7041C23.5 10.7814 23.4526 8.25997 23.4553 8.01588Z" fill="#E7E7E7"/>
</g>
<defs>
<clipPath id="clip0_227_2133">
<rect width="28" height="28" fill="white"/>
</clipPath>
</defs>
</svg>
