<svg width="28" height="28" viewBox="0 0 28 28" fill="none" xmlns="http://www.w3.org/2000/svg">
<g clip-path="url(#clip0_227_2136)">
<path d="M25.6666 6.90923C24.8078 7.28977 23.8863 7.54785 22.9181 7.66307C23.9067 7.07108 24.6634 6.1321 25.0221 5.01667C24.0948 5.56489 23.0712 5.96297 21.9806 6.17877C21.1072 5.24707 19.8649 4.66675 18.487 4.66675C15.8436 4.66675 13.7002 6.8101 13.7002 9.45211C13.7002 9.82682 13.7425 10.1928 13.8242 10.5428C9.8466 10.343 6.31956 8.4373 3.95896 5.54156C3.54632 6.24728 3.31158 7.06959 3.31158 7.94737C3.31158 9.60812 4.15726 11.0735 5.44036 11.9308C4.65591 11.9046 3.91813 11.6888 3.27223 11.3301V11.3898C3.27223 13.7082 4.92276 15.643 7.11129 16.0834C6.71032 16.1913 6.2875 16.251 5.85007 16.251C5.54098 16.251 5.24207 16.2204 4.94899 16.1621C5.55844 18.0649 7.32564 19.4486 9.41943 19.4865C7.78201 20.7696 5.71739 21.5322 3.47491 21.5322C3.08854 21.5322 2.70796 21.5088 2.33325 21.4665C4.45182 22.8269 6.96698 23.6201 9.67022 23.6201C18.4754 23.6201 23.2885 16.3269 23.2885 10.0018L23.2725 9.38215C24.2129 8.71139 25.0265 7.86864 25.6666 6.90923Z" fill="#E7E7E7"/>
</g>
<defs>
<clipPath id="clip0_227_2136">
<rect width="28" height="28" fill="white"/>
</clipPath>
</defs>
</svg>
