<svg width="32" height="32" viewBox="0 0 32 32" fill="none" xmlns="http://www.w3.org/2000/svg">
<g clip-path="url(#clip0_1_732)">
<path fill-rule="evenodd" clip-rule="evenodd" d="M11.9864 23.9999H20.0133C20.376 22.9871 21.1572 21.4231 22.0444 19.7661C22.7395 18.4678 23.4816 17.1451 24.1057 16.0329C24.2721 15.7364 24.4301 15.4548 24.5765 15.1926C25.0798 14.2918 25.3338 13.0592 25.3332 11.7601C25.3325 10.4498 25.0734 9.01037 24.4899 7.66769C23.3246 4.98602 20.0837 2.73741 15.9998 2.6665C11.916 2.73741 8.67509 4.98602 7.50977 7.66769C6.9263 9.01037 6.66717 10.4498 6.66651 11.7601C6.66584 13.0592 6.91986 14.2918 7.42313 15.1926C7.5696 15.4548 7.72759 15.7364 7.89397 16.0329C8.51806 17.1451 9.26019 18.4678 9.95531 19.7661C10.8425 21.4231 11.6237 22.9871 11.9864 23.9999ZM10.9998 10.6665C10.9998 10.5687 11.061 10.2863 11.2249 9.88677C11.3827 9.50205 11.6203 9.04678 11.9361 8.61256C12.573 7.73674 13.4857 6.99984 14.6665 6.99984V6.33317C13.1807 6.33317 12.0933 7.26293 11.3969 8.22045C11.0461 8.70289 10.7836 9.20596 10.6081 9.63374C10.4387 10.0467 10.3332 10.431 10.3332 10.6665H10.9998Z" fill="white"/>
<path d="M12.0444 25.3332C11.8247 26.6665 12.3081 29.3332 15.9998 29.3332C19.6916 29.3332 20.175 26.6665 19.9553 25.3332H12.0444Z" fill="white"/>
</g>
<defs>
<clipPath id="clip0_1_732">
<rect width="32" height="32" fill="white"/>
</clipPath>
</defs>
</svg>
