<svg width="20" height="20" viewBox="0 0 20 20" fill="none" xmlns="http://www.w3.org/2000/svg">
<g clip-path="url(#clip0_1_2414)">
<path d="M1.6665 18.3332L2.84362 14.0533C2.11726 12.8005 1.73558 11.3804 1.73628 9.92414C1.73837 5.37136 5.46092 1.6665 10.0347 1.6665C12.2543 1.6672 14.3378 2.52762 15.905 4.08873C17.4714 5.64984 18.3339 7.72484 18.3332 9.93178C18.3311 14.4853 14.6085 18.1901 10.0347 18.1901C8.64618 18.1894 7.27788 17.8429 6.06587 17.1846L1.6665 18.3332ZM14.215 11.895C14.1634 11.8089 14.0252 11.7575 13.8173 11.654C13.61 11.5505 12.5906 11.0512 12.4001 10.9825C12.2103 10.9137 12.0722 10.879 11.9333 11.0859C11.7952 11.2922 11.3974 11.7575 11.2767 11.895C11.156 12.0325 11.0346 12.0498 10.8274 11.9464C10.6201 11.8429 9.95169 11.6255 9.15973 10.9221C8.54361 10.3748 8.12705 9.69914 8.00634 9.4922C7.88563 9.28595 7.99378 9.17414 8.09705 9.07136C8.19055 8.979 8.30428 8.83039 8.40825 8.70956C8.51361 8.59012 8.5478 8.504 8.61758 8.36581C8.68665 8.22831 8.65246 8.10748 8.60013 8.004C8.5478 7.90123 8.13333 6.88525 7.96099 6.47206C7.79213 6.06998 7.62118 6.12414 7.49419 6.11789L7.09646 6.11095C6.95831 6.11095 6.73363 6.16234 6.54384 6.36928C6.35405 6.57623 5.81817 7.07484 5.81817 8.09081C5.81817 9.10678 6.56128 10.088 6.66455 10.2255C6.76852 10.363 8.12635 12.4478 10.2064 13.3415C10.7011 13.554 11.0876 13.6811 11.3884 13.7762C11.8852 13.9332 12.3373 13.9109 12.6946 13.8582C13.093 13.7991 13.9212 13.3589 14.0943 12.8769C14.2673 12.3943 14.2673 11.9811 14.215 11.895Z" fill="#707070"/>
</g>
<defs>
<clipPath id="clip0_1_2414">
<rect width="20" height="20" fill="white"/>
</clipPath>
</defs>
</svg>
